<?xml version="1.0" standalone="no"?><!DOCTYPE svg PUBLIC "-//W3C//DTD SVG 1.1//EN" "http://www.w3.org/Graphics/SVG/1.1/DTD/svg11.dtd"><svg t="1721291560513" class="icon" viewBox="0 0 1024 1024" version="1.1" xmlns="http://www.w3.org/2000/svg" p-id="28992" xmlns:xlink="http://www.w3.org/1999/xlink" width="200" height="200"><path d="M408.625951 122.780098a99.902439 99.902439 0 0 1 99.902439 99.902439V513.24878c0 40.96-19.905561 75.850927-59.766634 104.647805v186.118244a107.569951 107.569951 0 1 1-215.139902 0v-186.118244c-39.836098-28.796878-59.741659-63.687805-59.741659-104.647805V222.682537a99.902439 99.902439 0 0 1 99.902439-99.902439h134.868293z m-44.956097 49.951219h-44.956098v241.389268h-49.951219l0.024975-241.164487a49.95122 49.95122 0 0 0-44.956097 49.701463v290.616195c0 24.001561 11.588683 44.306732 39.061853 64.187317l20.679805 14.935415v211.643317a57.618732 57.618732 0 1 0 115.237464 0v-211.643317l20.70478-14.935415c27.473171-19.880585 39.061854-40.185756 39.061854-64.187317V222.682537a49.95122 49.95122 0 0 0-44.956098-49.701464v241.139512h-49.951219V172.731317z m469.666341-2.597463a99.902439 99.902439 0 0 1 16.78361 55.445853V827.941463a83.668293 83.668293 0 1 1-167.336585 0v-168.385561c0-5.594537-68.133463-44.781268-91.061074-133.994146-20.604878-80.09678-20.405073-254.251707 59.766634-344.738341a224.980293 224.980293 0 0 1 43.307708-38.337561 99.877463 99.877463 0 0 1 138.539707 27.648z m-41.559415 27.722926a49.926244 49.926244 0 0 0-69.23239-13.836487c-11.613659 7.742439-22.827707 17.682732-33.667122 29.92078-55.92039 63.113366-72.504195 206.848-48.777366 299.207805a174.329756 174.329756 0 0 0 32.668098 65.386146c6.743415 8.566634 13.736585 16.034341 21.653854 23.477074l6.144 5.594536c2.172878 1.923122 9.740488 8.466732 11.338926 9.915317 2.722341 2.422634 4.845268 4.445659 7.043122 6.918244l2.372683 2.822244c0.849171 1.098927 1.748293 2.44761 3.87122 5.544585l2.572488 4.49561c2.247805 4.32078 2.747317 7.692488 4.995122 22.253268v168.385561a33.717073 33.717073 0 1 0 67.434146 0V225.579707a49.95122 49.95122 0 0 0-6.243902-24.126439l-2.172879-3.596488z" fill="#143167" p-id="28993"></path></svg>