<?xml version="1.0" standalone="no"?><!DOCTYPE svg PUBLIC "-//W3C//DTD SVG 1.1//EN" "http://www.w3.org/Graphics/SVG/1.1/DTD/svg11.dtd"><svg t="1721291532083" class="icon" viewBox="0 0 1024 1024" version="1.1" xmlns="http://www.w3.org/2000/svg" p-id="27818" xmlns:xlink="http://www.w3.org/1999/xlink" width="200" height="200"><path d="M199.104 526.528c3.648-1.92 115.968-55.68 246.656 56.64 2.112 2.176 12.48 11.968 30.72 22.656 0.256 0.256 0.192 0.64 0.512 0.896 2.56 1.728 61.312 42.368 169.728 42.368 5.12-0.768 49.92-0.576 52.8 43.648l-0.192 2.496c-1.088 9.6-8.192 43.52-53.248 45.056H485.632l-101.568-64.96a16.448 16.448 0 0 0-22.208 4.352 15.104 15.104 0 0 0 4.48 21.376l105.664 67.584c2.624 1.6 5.696 2.56 8.896 2.56h165.76c65.28-2.24 84.096-51.84 84.864-79.04-3.648-57.024-50.368-73.152-78.72-73.984l95.68-57.216a136 136 0 0 1 97.28 19.84l-88.128 52.608a15.168 15.168 0 0 0-5.248 21.248 16.32 16.32 0 0 0 22.08 5.12l132.032-79.04c0.96-0.384 23.68-8.832 59.52 0 8.832 3.648 17.088 8 24.32 13.952 32.128 26.368 33.6 64.192 33.664 68.48a30.72 30.72 0 0 1-14.464 26.24L615.68 938.88c-19.072 15.808-41.984 21.12-64.256 21.12-42.112 0-81.728-19.072-88.128-22.272l-217.92-94.336-94.08 41.856a32.576 32.576 0 0 1-42.432-15.104L3.008 649.216a30.4 30.4 0 0 1 15.424-40.96z m368.384-1.664c12.992-4.8 72.96-23.552 123.392-4.48 5.12 1.92 8.896 5.248 13.12 8.128l-88.96 43.968c-1.6 0.832-1.92 2.432-3.136 3.52A410.88 410.88 0 0 1 512 553.6z m-78.464-391.04C510.016 108.672 550.144 64 605.056 64c76.928 0 139.712 64.384 139.712 144.384 0 27.392-7.936 54.336-22.656 77.504-53.696 101.44-192.832 202.24-220.032 221.248l-1.216 0.64A21.888 21.888 0 0 1 487.936 512a30.016 30.016 0 0 1-13.056-4.224c-1.664-0.64-162.368-110.4-220.032-221.888a144.448 144.448 0 0 1-22.08-77.504C233.408 128.384 296.128 64 373.12 64c54.848 0 96.192 46.464 115.84 69.76z" p-id="27819" fill="#ffffff"></path></svg>