<?xml version="1.0" standalone="no"?><!DOCTYPE svg PUBLIC "-//W3C//DTD SVG 1.1//EN" "http://www.w3.org/Graphics/SVG/1.1/DTD/svg11.dtd"><svg t="1721291449767" class="icon" viewBox="0 0 1024 1024" version="1.1" xmlns="http://www.w3.org/2000/svg" p-id="24284" xmlns:xlink="http://www.w3.org/1999/xlink" width="200" height="200"><path d="M394.4 852.8h-4c-1.6 0-3.2 0-4-0.8-0.8 0-2.4-0.8-3.2-1.6-2.4-0.8-3.2-1.6-4.8-3.2l-0.8-0.8h-0.8s0-0.8-0.8-0.8c-0.8-0.8-0.8-1.6-1.6-1.6l-1.6-1.6-60-100.8H169.6c-49.6 0-89.6-40-89.6-89.6V227.2c0-49.6 40-89.6 89.6-89.6h716c49.6 0 89.6 40 89.6 89.6v424.8c0 49.6-40 89.6-89.6 89.6H515.2l-105.6 105.6c-0.8 0.8-0.8 0.8-1.6 0.8s-0.8 0.8-0.8 0.8c-1.6 1.6-1.6 1.6-2.4 1.6h-0.8c-2.4 0.8-4 1.6-4.8 1.6-1.6 0-2.4 0.8-4 0.8h-0.8z m-68-156c8 0 15.2 4 19.2 10.4l52 87.2 92-92c4-4 9.6-6.4 16-6.4h380.8c24.8 0 44.8-20 44.8-44.8v-424c0-24.8-20-44.8-44.8-44.8H169.6c-24.8 0-44.8 20-44.8 44.8v424.8c0 24.8 20 44.8 44.8 44.8H326.4z m402.4-224c-24.8 0-44.8-20-44.8-44.8s20-44.8 44.8-44.8 44.8 20 44.8 44.8-20 44.8-44.8 44.8z m-200.8 0c-24.8 0-44.8-20-44.8-44.8s20-44.8 44.8-44.8 44.8 20 44.8 44.8-20 44.8-44.8 44.8z m-201.6 0c-24.8 0-44.8-20-44.8-44.8s20-44.8 44.8-44.8 44.8 20 44.8 44.8-20 44.8-44.8 44.8z" fill="#ffffff" p-id="24285"></path></svg>