<?xml version="1.0" standalone="no"?><!DOCTYPE svg PUBLIC "-//W3C//DTD SVG 1.1//EN" "http://www.w3.org/Graphics/SVG/1.1/DTD/svg11.dtd"><svg t="1721291596607" class="icon" viewBox="0 0 1117 1024" version="1.1" xmlns="http://www.w3.org/2000/svg" p-id="30147" xmlns:xlink="http://www.w3.org/1999/xlink" width="218.1640625" height="200"><path d="M253.067636 3.490909l8.145455 2.885818 242.967273 129.070546c19.502545 8.890182 37.748364 19.362909 54.365091 31.557818C632.226909 112.826182 738.816 93.090909 837.818182 93.090909c60.695273 0 138.938182 18.618182 234.728727 55.854546A69.818182 69.818182 0 0 1 1117.090909 213.922909v765.672727c0 12.381091-12.706909 24.669091-25.367273 24.669091-5.12 0-7.633455 0-12.706909-2.420363-71.074909-37.003636-157.416727-51.758545-241.198545-51.758546-86.341818 0-210.711273 32.023273-279.272727 73.914182-73.681455-54.225455-180.270545-73.914182-279.272728-73.914182-73.681455 0-172.637091 22.202182-241.245091 54.178909-5.026909 0-7.540364 2.466909-12.660363 2.466909-12.660364 0-25.367273-12.288-25.367273-24.622545V214.481455a69.818182 69.818182 0 0 1 45.056-65.256728 1252.305455 1252.305455 0 0 1 96.302545-32.488727l-1.163636-10.565818C134.749091 53.666909 170.123636 6.423273 219.229091 0.605091c11.357091-1.396364 22.853818-0.372364 33.838545 2.885818zM232.727273 97.466182v33.000727l75.636363 727.04c87.04 2.932364 168.308364 19.456 236.776728 51.2l17.640727 8.704 3.118545-1.396364c76.706909-33.140364 175.383273-56.040727 256-58.786909l15.918546-0.232727c62.743273 0 123.252364 7.168 178.548363 21.783273l7.633455 2.094545V230.027636l-1.070545-0.372363c-73.216-27.368727-132.375273-41.518545-175.988364-43.287273L837.818182 186.181818c-88.064 0-165.515636 17.547636-215.133091 49.617455l-8.936727 6.190545L558.545455 282.624a155.554909 155.554909 0 0 0-55.20291-40.634182C462.568727 220.299636 372.363636 172.125091 232.727273 97.466182zM110.498909 224.395636L93.090909 230.632727v654.754909l14.103273-3.909818a768 768 0 0 1 111.476363-20.945454L151.133091 210.897455c-12.939636 4.002909-26.530909 8.471273-40.634182 13.498181z m723.083636 364.125091c23.505455 0 55.621818 2.513455 96.395637 7.68a34.909091 34.909091 0 0 1 30.533818 34.629818v6.935273a32.395636 32.395636 0 0 1-36.677818 32.116364l-26.670546-3.258182c-25.320727-2.792727-46.545455-4.189091-63.581091-4.189091-52.224 0-115.618909 11.915636-190.231272 35.84a29.323636 29.323636 0 0 1-38.260364-27.927273v-14.475636a34.909091 34.909091 0 0 1 25.786182-33.698909c82.850909-22.481455 150.434909-33.652364 202.705454-33.652364z m0-131.630545c23.505455 0 55.621818 2.606545 96.395637 7.726545a34.909091 34.909091 0 0 1 30.533818 34.629818v6.981819a32.395636 32.395636 0 0 1-36.677818 32.116363c-37.422545-5.026909-67.490909-7.493818-90.298182-7.493818-52.177455 0-115.572364 11.915636-190.184727 35.793455a29.323636 29.323636 0 0 1-38.260364-27.927273v-14.429091a34.909091 34.909091 0 0 1 25.786182-33.652364c82.850909-22.481455 150.434909-33.745455 202.705454-33.745454z m0-131.072c23.505455 0 55.621818 2.56 96.395637 7.726545a34.909091 34.909091 0 0 1 30.533818 34.629818v6.935273a32.395636 32.395636 0 0 1-36.677818 32.116364l-26.670546-3.258182c-25.320727-2.792727-46.545455-4.189091-63.581091-4.189091-52.224 0-115.618909 11.915636-190.231272 35.793455a29.323636 29.323636 0 0 1-38.260364-27.927273v-14.429091a34.909091 34.909091 0 0 1 25.786182-33.698909C713.728 336.989091 781.312 325.818182 833.582545 325.818182z" fill="#143167" p-id="30148"></path></svg>