<?xml version="1.0" standalone="no"?><!DOCTYPE svg PUBLIC "-//W3C//DTD SVG 1.1//EN" "http://www.w3.org/Graphics/SVG/1.1/DTD/svg11.dtd"><svg t="1720079745931" class="icon" viewBox="0 0 1024 1024" version="1.1" xmlns="http://www.w3.org/2000/svg" p-id="1656" xmlns:xlink="http://www.w3.org/1999/xlink" width="200" height="200"><path d="M160 863.3v-46.4c4 24.3 23.7 43.3 48.3 46.4H160zM736.1 257V151.8c0-26.5-18.5-48.8-43.3-54.6h43.4l-0.1 159.8zM160 97.2h42.6c-21.9 5.1-38.9 23-42.6 45.4V97.2z" fill="#1296db" p-id="1657"></path><path d="M744.1 65.2H152c-13.2 0-24 10.8-24 24v782.1c0 13.2 10.8 24 24 24h232v-63.6H215.3c-13.2 0-24-10.8-24-24V151.8c0-13.2 10.8-24 24-24h464.8c13.2 0 24 10.8 24 24V289h64.1V89.2c-0.1-13.2-10.9-24-24.1-24z" fill="#1296db" p-id="1658"></path><path d="M706.1 447.8c53.5 0 97 43.5 97 97s-43.5 97-97 97-97-43.5-97-97 43.5-97 97-97m0-64c-88.9 0-161 72.1-161 161s72.1 161 161 161 161-72.1 161-161-72.1-161-161-161z" fill="#1296db" p-id="1659"></path><path d="M549.2 897.3c12.6-74.2 77.2-130.7 154.9-130.7S846.5 823.1 859 897.3h62.6C908.5 788.7 816.1 704.6 704 704.6s-204.5 84.2-217.6 192.7h62.8z" fill="#1296db" p-id="1660"></path><path d="M704.2 704.6c-112.1 0-204.5 84.2-217.6 192.7h62.6c12.6-74.2 77.2-130.7 154.9-130.7S846.5 823.1 859 897.3h62.6c-12.9-108.6-105.3-192.7-217.4-192.7z" fill="#1296db" p-id="1661"></path><path d="M486.6 897.4a31.3 31.2 0 1 0 62.6 0 31.3 31.2 0 1 0-62.6 0Z" fill="#1296db" p-id="1662"></path><path d="M517.9 866.3c-17.3 0-31.3 14-31.3 31.2s14 31.2 31.3 31.2 31.3-14 31.3-31.2-14.1-31.2-31.3-31.2z" fill="#1296db" p-id="1663"></path><path d="M859.2 897.4a31.3 31.2 0 1 0 62.6 0 31.3 31.2 0 1 0-62.6 0Z" fill="#1296db" p-id="1664"></path><path d="M890.5 866.3c-17.3 0-31.3 14-31.3 31.2s14 31.2 31.3 31.2 31.3-14 31.3-31.2-14-31.2-31.3-31.2z" fill="#1296db" p-id="1665"></path><path d="M608.3 319.6H287.9c-17.5 0-31.8-14.3-31.8-31.8s14.3-31.8 31.8-31.8h320.4c17.5 0 31.8 14.3 31.8 31.8s-14.3 31.8-31.8 31.8z" fill="#1296db" p-id="1666"></path><path d="M608.3 256H287.9c-17.5 0-31.8 14.3-31.8 31.8s14.3 31.8 31.8 31.8h320.4c17.5 0 31.8-14.3 31.8-31.8S625.8 256 608.3 256z" fill="#1296db" p-id="1667"></path><path d="M448.2 512.1H287.9c-17.5 0-31.8-14.3-31.8-31.8s14.3-31.8 31.8-31.8h160.3c17.5 0 31.8 14.3 31.8 31.8s-14.3 31.8-31.8 31.8z" fill="#1296db" p-id="1668"></path><path d="M448.2 448.4H287.9c-17.5 0-31.8 14.3-31.8 31.8s14.3 31.8 31.8 31.8h160.3c17.5 0 31.8-14.3 31.8-31.8s-14.3-31.8-31.8-31.8z" fill="#1296db" p-id="1669"></path><path d="M384.8 863.4m-31.8 0a31.8 31.8 0 1 0 63.6 0 31.8 31.8 0 1 0-63.6 0Z" fill="#1296db" p-id="1670"></path><path d="M384.8 831.7c-17.5 0-31.8 14.2-31.8 31.8s14.2 31.8 31.8 31.8 31.8-14.2 31.8-31.8-14.3-31.8-31.8-31.8z" fill="#1296db" p-id="1671"></path><path d="M736.1 286.9m-32 0a32 32 0 1 0 64 0 32 32 0 1 0-64 0Z" fill="#1296db" p-id="1672"></path><path d="M736.1 254.9c-17.7 0-32 14.3-32 32s14.3 32 32 32 32-14.3 32-32-14.3-32-32-32z" fill="#1296db" p-id="1673"></path></svg>