<?xml version="1.0" standalone="no"?><!DOCTYPE svg PUBLIC "-//W3C//DTD SVG 1.1//EN" "http://www.w3.org/Graphics/SVG/1.1/DTD/svg11.dtd"><svg t="1720080888892" class="icon" viewBox="0 0 1024 1024" version="1.1" xmlns="http://www.w3.org/2000/svg" p-id="2944" xmlns:xlink="http://www.w3.org/1999/xlink" width="200" height="200"><path d="M870.250667 993.877333H342.741333c-39.488 0-71.573333-32.853333-71.573333-73.258666v-72.170667a21.333333 21.333333 0 1 1 42.666667 0v72.170667c0 16.853333 12.970667 30.592 28.906666 30.592h527.509334c15.936 0 28.906667-13.738667 28.906666-30.592V227.413333c0-16.853333-12.970667-30.549333-28.906666-30.549333h-138.752a21.333333 21.333333 0 1 1 0-42.666667h138.752c39.488 0 71.573333 32.853333 71.573333 73.216v693.205334c0 40.405333-32.085333 73.258667-71.573333 73.258666z" fill="#13227a" p-id="2945"></path><path d="M292.501333 869.781333H153.706667c-39.466667 0-71.552-32.832-71.552-73.216V103.381333c0-40.384 32.085333-73.258667 71.552-73.258666h527.509333c39.509333 0 71.616 32.874667 71.616 73.258666v72.170667a21.333333 21.333333 0 0 1-21.333333 21.333333H342.741333c-15.936 0-28.906667 13.696-28.906666 30.549334v621.034666a21.312 21.312 0 0 1-21.333334 21.312zM153.706667 72.789333c-15.914667 0-28.885333 13.717333-28.885334 30.592V796.586667c0 16.832 12.949333 30.549333 28.885334 30.549333h117.461333V227.413333c0-40.362667 32.106667-73.216 71.573333-73.216h367.424V103.381333c0-16.874667-12.992-30.592-28.949333-30.592H153.706667z" fill="#13227a" p-id="2946"></path><path d="M606.506667 556.949333c-82.090667 0-148.885333-66.773333-148.885334-148.842666 0-82.090667 66.794667-148.885333 148.885334-148.885334s148.885333 66.773333 148.885333 148.885334a149.056 149.056 0 0 1-148.885333 148.842666z m0-255.04a106.346667 106.346667 0 0 0-106.218667 106.218667c0 58.538667 47.637333 106.176 106.218667 106.176s106.218667-47.616 106.218666-106.176a106.368 106.368 0 0 0-106.218666-106.218667z" fill="#13227a" p-id="2947"></path><path d="M795.541333 728.298667H417.493333a21.290667 21.290667 0 0 1-21.269333-22.976c8.426667-109.184 100.778667-194.730667 210.261333-194.730667 109.525333 0 201.898667 85.546667 210.304 194.730667a21.354667 21.354667 0 0 1-21.248 22.976z m-353.365333-42.666667h328.704c-16.661333-75.84-84.864-132.373333-164.373333-132.373333s-147.690667 56.533333-164.330667 132.373333z" fill="#13227a" p-id="2948"></path><path d="M807.466667 844.8H405.589333a21.333333 21.333333 0 1 1 0-42.666667H807.466667a21.333333 21.333333 0 1 1 0 42.666667z" fill="#13227a" p-id="2949"></path></svg>