<?xml version="1.0" standalone="no"?><!DOCTYPE svg PUBLIC "-//W3C//DTD SVG 1.1//EN" "http://www.w3.org/Graphics/SVG/1.1/DTD/svg11.dtd"><svg t="1721291179849" class="icon" viewBox="0 0 1024 1024" version="1.1" xmlns="http://www.w3.org/2000/svg" p-id="15987" xmlns:xlink="http://www.w3.org/1999/xlink" width="200" height="200"><path d="M744.405333 559.189333a42.666667 42.666667 0 0 0-57.216 19.072l-81.92 163.84-5.632-16.768 38.186667-114.517333A42.666667 42.666667 0 0 0 597.333333 554.666667h-170.666666a42.666667 42.666667 0 0 0-40.490667 56.149333L424.362667 725.333333l-5.589334 16.768-81.92-163.84a42.666667 42.666667 0 0 0-57.258666-19.072l-170.666667 85.333334a42.666667 42.666667 0 0 0-21.973333 26.453333l-85.333334 298.666667A42.666667 42.666667 0 0 0 42.666667 1024h938.666666a42.666667 42.666667 0 0 0 41.045334-54.4l-85.333334-298.666667a42.666667 42.666667 0 0 0-21.973333-26.453333l-170.666667-85.333333zM538.154667 640l-23.978667 71.850667a42.666667 42.666667 0 0 0 0 26.965333l42.666667 128a42.666667 42.666667 0 0 0 78.634666 5.589333l108.928-217.813333 115.712 57.856L924.757333 938.666667H99.242667l64.64-226.218667 115.712-57.856 108.928 217.813333a42.666667 42.666667 0 0 0 78.634666-5.546666l42.666667-128a42.666667 42.666667 0 0 0 0-27.008L485.845333 640h52.309334z" p-id="15988" fill="#143167"></path><path d="M768 0h-256a256 256 0 1 0 256 256V0z m-85.333333 85.333333v170.666667a170.666667 170.666667 0 1 1-170.666667-170.666667h170.666667z" p-id="15989" fill="#143167"></path></svg>