<?xml version="1.0" standalone="no"?><!DOCTYPE svg PUBLIC "-//W3C//DTD SVG 1.1//EN" "http://www.w3.org/Graphics/SVG/1.1/DTD/svg11.dtd"><svg t="1721290873504" class="icon" viewBox="0 0 1024 1024" version="1.1" xmlns="http://www.w3.org/2000/svg" p-id="4519" xmlns:xlink="http://www.w3.org/1999/xlink" width="200" height="200"><path d="M500.38272 1024H185.216c-76.93312-0.09216-139.26912-62.42816-139.36128-139.36128V155.35616c0.09216-76.90752 62.42816-139.264 139.35616-139.35616h630.3488c76.91776 0.09216 139.26912 62.42816 139.36128 139.35616v323.61472a22.67648 22.67648 0 1 1-45.35296 0V155.35616c-0.10752-51.90144-42.1376-93.95712-94.00832-94.01344H185.216c-51.90144 0.06144-93.95712 42.11712-94.01344 94.01344v729.28256c0.06144 51.90144 42.11712 93.96224 94.01344 94.01856h315.16672a22.67136 22.67136 0 0 1 0 45.34272z" fill="#143167" p-id="4520"></path><path d="M972.65152 710.59456l-27.06944-8.20736a189.66016 189.66016 0 0 0-20.41856-49.0496l13.00992-24.8576a26.00448 26.00448 0 0 0-4.56192-30.70976l-22.66624-23.14752a26.05056 26.05056 0 0 0-30.69952-4.97152l-24.85248 13.02016a183.73632 183.73632 0 0 0-49.05984-19.36896l-8.21248-27.20256a25.96864 25.96864 0 0 0-24.85248-18.4576h-32.78848a26.0608 26.0608 0 0 0-24.85248 18.4576l-8.21248 27.06432a184.5248 184.5248 0 0 0-49.06496 20.43392l-24.85248-13.96736a26.05056 26.05056 0 0 0-30.70976 4.42368l-23.14752 23.69024a26.04544 26.04544 0 0 0-4.95616 30.70976l13.02016 24.85248a188.70784 188.70784 0 0 0-19.39456 49.05984l-27.20256 8.21248a25.9584 25.9584 0 0 0-18.46784 24.85248v32.77312a26.05056 26.05056 0 0 0 18.46784 24.85248l27.04896 8.20736a189.47584 189.47584 0 0 0 20.4288 49.06496l-13.93152 24.85248a26.00448 26.00448 0 0 0 4.56192 30.72l23.14752 23.14752a25.984 25.984 0 0 0 30.70976 4.4288l24.85248-13.02016a183.08608 183.08608 0 0 0 49.05472 20.16256l8.21248 27.20256a26.09152 26.09152 0 0 0 25.26208 18.23744h32.77824a26.06592 26.06592 0 0 0 24.85248-18.47296l8.21248-27.04896a184.06912 184.06912 0 0 0 49.05984-20.43392l24.85248 13.02016a26.05056 26.05056 0 0 0 30.70976-4.41344l23.15264-23.14752a26.07104 26.07104 0 0 0 4.95104-30.33088l-13.00992-24.85248a188.416 188.416 0 0 0 20.16256-49.07008l27.20256-8.21248a26.00448 26.00448 0 0 0 17.69984-24.85248v-32.77824a25.93792 25.93792 0 0 0-18.42688-24.87296z m-34.62656 65.72032a26.12736 26.12736 0 0 0-17.57696 18.35008 169.344 169.344 0 0 1-17.59744 42.56256 26.1632 26.1632 0 0 0 0 26.03008l13.02016 24.85248-23.30112 22.50752-24.99072-13.02016a26.0864 26.0864 0 0 0-26.03008 0 171.16672 171.16672 0 0 1-42.42432 17.57184 25.94816 25.94816 0 0 0-18.4576 17.58208l-7.40864 27.35104h-32.67072l-8.21248-27.06944a26.17344 26.17344 0 0 0-18.46272-17.59232 170.8544 170.8544 0 0 1-42.39872-17.57184 26.02496 26.02496 0 0 0-13.02016-3.65056c-4.20864 0-8.39168 1.02912-12.09344 2.99008l-24.85248 13.02016-23.41888-22.65088 13.00992-24.98048a26.04032 26.04032 0 0 0-0.65024-26.03008 168.7552 168.7552 0 0 1-17.57696-42.56256 25.98912 25.98912 0 0 0-17.5872-18.35008l-26.68032-7.40864v-32.67584l27.0592-8.21248a26.2144 26.2144 0 0 0 17.59744-18.35008 168.4224 168.4224 0 0 1 17.57696-42.56256 26.10176 26.10176 0 0 0 0.65024-25.37472l-13.02016-24.85248 22.66112-23.15264 24.99072 13.00992a26.06592 26.06592 0 0 0 25.37984-0.65024 172.24704 172.24704 0 0 1 42.40896-17.17248 25.89184 25.89184 0 0 0 18.46272-17.60256l8.064-27.0592h32.67584l8.20736 27.0592a26.18368 26.18368 0 0 0 18.46272 17.60256c14.86336 3.93728 29.1328 9.8304 42.42944 17.58208a26.0608 26.0608 0 0 0 26.01984 0.65536l24.85248-13.01504 23.14752 23.14752-13.01504 24.98048a26.1632 26.1632 0 0 0 0 25.37984 169.17504 169.17504 0 0 1 17.59232 42.56256 25.96864 25.96864 0 0 0 17.5872 18.35008l27.06432 8.06912v32.6656l-27.47392 7.68512z" fill="#143167" p-id="4521"></path><path d="M756.87424 647.74144c-57.49248 0-104.12032 46.61248-104.12032 104.11008s46.61248 104.11008 104.12032 104.11008c57.49248 0 104.11008-46.61248 104.11008-104.11008s-46.60224-104.11008-104.11008-104.11008z m0 182.19008c-43.136 0-78.09024-34.94912-78.09024-78.08 0-43.14112 34.95424-78.08 78.09024-78.08 43.12576 0 78.08 34.93888 78.08 78.08 0 43.13088-34.95424 78.08-78.08 78.08z" fill="#143167" p-id="4522"></path><path d="M985.76384 712.09472l-28.70784-8.69376a202.24512 202.24512 0 0 0-21.65248-52.03968l13.78816-26.34752a27.648 27.648 0 0 0-4.80256-32.57856l-24.02816-24.576a27.53536 27.53536 0 0 0-32.54272-5.24288l-26.37312 13.80352a196.02432 196.02432 0 0 0-52.03968-20.5824l-8.68352-28.8768a27.60704 27.60704 0 0 0-26.34752-19.6096h-34.83136a27.648 27.648 0 0 0-26.36288 19.6096l-8.68352 28.70272c-18.29888 4.67968-35.84 11.98592-52.04992 21.65248l-26.34752-14.79168a27.60704 27.60704 0 0 0-32.57344 4.69504l-24.57088 25.12896a27.58144 27.58144 0 0 0-5.248 32.56832l13.80864 26.34752a199.69024 199.69024 0 0 0-20.58752 52.03968l-28.86656 8.69376a27.58656 27.58656 0 0 0-19.6096 26.35264v34.78528a27.5712 27.5712 0 0 0 19.6096 26.34752l28.69248 8.68864a201.95328 201.95328 0 0 0 21.66784 52.04992l-14.78656 26.35264a27.62752 27.62752 0 0 0 4.8128 32.57344l24.58624 24.576a27.5456 27.5456 0 0 0 32.54272 4.70016l26.368-13.7984a195.4816 195.4816 0 0 0 52.04992 21.41696l8.68864 28.86144a27.61728 27.61728 0 0 0 26.77248 19.31776h34.79552a27.6224 27.6224 0 0 0 26.35264-19.6096l8.68352-28.69248c18.28864-4.67968 35.84-11.99616 52.03968-21.66272l26.35264 13.79328a27.56096 27.56096 0 0 0 32.5632-4.68992l24.58624-24.58112a27.55584 27.55584 0 0 0 5.22752-32.16384l-13.78304-26.34752a201.23648 201.23648 0 0 0 21.4016-52.04992l28.88704-8.69376a27.58144 27.58144 0 0 0 18.76992-26.34752v-34.78016a27.50464 27.50464 0 0 0-19.56864-26.30144z m-36.72576 69.71392a27.74016 27.74016 0 0 0-18.66752 19.47136 178.46784 178.46784 0 0 1-18.65728 45.14816 27.6224 27.6224 0 0 0 0 27.61216l13.7984 26.368-24.69888 23.87968-26.5216-13.80864a27.6736 27.6736 0 0 0-27.62752 0 181.4016 181.4016 0 0 1-45.00992 18.64192 27.68896 27.68896 0 0 0-19.59936 18.66752l-7.86944 28.9792h-34.66752l-8.68864-28.70272a27.61216 27.61216 0 0 0-19.59424-18.64704 180.1216 180.1216 0 0 1-44.99968-18.66752 27.7504 27.7504 0 0 0-13.80352-3.8656c-4.46976 0-8.8576 1.09568-12.83584 3.1744l-26.36288 13.79328-24.85248-24.0128 13.7984-26.50624a27.5968 27.5968 0 0 0-0.70144-27.6224 181.71392 181.71392 0 0 1-18.6624-45.13792 27.65312 27.65312 0 0 0-18.65216-19.47136l-28.288-7.8592v-34.66752l28.69248-8.6784a27.7248 27.7248 0 0 0 18.66752-19.50208 178.688 178.688 0 0 1 18.65216-45.12256 27.6992 27.6992 0 0 0 0.71168-26.94144L588.8 611.98848l24.01792-24.57088 26.51136 13.78816a27.67872 27.67872 0 0 0 26.9312-0.70656 183.10656 183.10656 0 0 1 44.99968-18.23744 27.61216 27.61216 0 0 0 19.59424-18.6624l8.576-28.6976h34.66752l8.66816 28.6976a27.71968 27.71968 0 0 0 19.59424 18.6624 180.98176 180.98176 0 0 1 45.02016 18.65216 27.60704 27.60704 0 0 0 27.62752 0.71168l26.34752-13.78816 24.58624 24.58112-13.78816 26.50624a27.60192 27.60192 0 0 0 0 26.92608 180.98176 180.98176 0 0 1 18.6368 45.13792 27.6992 27.6992 0 0 0 18.66752 19.47136l28.69248 8.56064v34.66752l-29.11232 8.12032zM163.15392 754.67776c-4.74112 0-8.13056-5.71904-8.13056-13.73184s3.38944-13.73696 8.13056-13.73696h284.63616c4.74112 0 8.13056 5.71392 8.13056 13.73696 0 8.00256-3.38944 13.73184-8.13056 13.73184H163.15392z m0 140.61056c-4.74112 0-8.13056-5.71904-8.13056-13.73184 0-8.00256 3.38944-13.72672 8.13056-13.72672h284.63616c4.74112 0 8.13056 5.70368 8.13056 13.72672 0 8.00256-3.38944 13.73184-8.13056 13.73184H163.15392z" fill="#143167" p-id="4523"></path><path d="M615.48032 345.63072c22.68672-20.04992 37.06368-49.0752 37.06368-81.44384a108.61056 108.61056 0 0 0-97.8432-108.40576 20.75648 20.75648 0 0 0-22.67648 18.49344 20.6848 20.6848 0 0 0 18.49344 22.66112 67.35872 67.35872 0 0 1 60.65664 67.2512c0 34.4576-25.7792 63.3344-59.95008 67.1744-7.5264 0.83968-13.33248 5.79072-16.24064 12.22144l-0.0768 0.14336a20.01408 20.01408 0 0 0-1.5104 5.69856c-0.12288 0.74752-0.53248 1.38752-0.5632 2.16576-0.03584 0.57344 0.22528 1.07008 0.24064 1.63328 0.01536 0.34304-0.12288 0.64512-0.08704 0.98816 0.05632 0.51712 0.33792 0.93184 0.44032 1.42848 1.40288 9.5232 8.94464 17.1776 18.92352 17.73568 77.11232 4.25984 140.0576 65.57184 146.43712 142.62784a20.67968 20.67968 0 1 0 41.22112-3.41504c-6.2976-76.16-56.40192-140.01152-124.52864-166.95808z" fill="#143167" p-id="4524"></path><path d="M466.09408 356.29568c28.53888-22.84032 46.89408-57.89696 46.89408-97.20832 0-68.67456-55.86944-124.54912-124.53376-124.54912S263.91552 190.4128 263.91552 259.09248c0 39.30624 18.3552 74.36288 46.89408 97.20832-81.36192 29.9008-142.32576 104.99584-149.80608 195.34336a20.67456 20.67456 0 0 0 18.90816 22.31808c11.6736 1.00864 21.38112-7.53152 22.31808-18.89792 7.95136-96.128 89.7536-171.43296 186.22464-171.43296s178.27328 75.30496 186.22464 171.43296a20.67968 20.67968 0 1 0 41.22112-3.42016c-7.4752-90.34752-68.43904-165.44256-149.80608-195.34848zM305.28512 259.09248c0-45.85984 37.30944-83.17952 83.16928-83.17952s83.16416 37.31456 83.16416 83.17952c0 45.86496-37.30432 83.16928-83.16416 83.16928s-83.16928-37.30944-83.16928-83.16928z" fill="#143167" p-id="4525"></path></svg>