<?xml version="1.0" standalone="no"?><!DOCTYPE svg PUBLIC "-//W3C//DTD SVG 1.1//EN" "http://www.w3.org/Graphics/SVG/1.1/DTD/svg11.dtd"><svg t="1721291505273" class="icon" viewBox="0 0 1024 1024" version="1.1" xmlns="http://www.w3.org/2000/svg" p-id="26674" xmlns:xlink="http://www.w3.org/1999/xlink" width="200" height="200"><path d="M531.84 694.144c47.36-0.128 94.72 5.12 140.992 15.552a274.56 274.56 0 0 0 0-0.128l43.648-119.168a49.6 49.6 0 0 0-32.704-6.528l-4.992 0.96a31.424 31.424 0 0 1-29.44-8.512l-2.688-3.072a48.96 48.96 0 0 0-47.168-19.712l-4.992 0.96a31.232 31.232 0 0 1-32.256-11.648 49.408 49.408 0 0 0-23.168-17.344l-4.352-1.408a60.288 60.288 0 0 0-8.768-1.6l-4.352-0.192c-8.512-0.128-12.672-7.232-5.632-15.232 68.032-76.8 163.52-120.576 268.16-96.448l0.32-1.92 1.088-3.584a31.296 31.296 0 1 1 56.768 25.664c100.8 48 147.2 145.664 148.48 251.264 0.128 8.768-8 9.536-12.8 5.376a53.312 53.312 0 0 0-16.96-9.92 50.048 50.048 0 0 0-24.128-2.368l-4.992 1.024a31.616 31.616 0 0 1-29.568-8.576l-2.624-3.072a49.088 49.088 0 0 0-47.168-19.712l-5.056 0.96a31.36 31.36 0 0 1-32.192-11.584 49.088 49.088 0 0 0-40.768-20.288l-41.472 113.28 5.44 1.984 0.512 0.128c115.392 43.52 193.152 123.776 196.672 223.36l0.128 7.296H122.24c0-137.408 144.256-239.68 332.992-261.568L375.424 399.168a73.792 73.792 0 0 0-74.88 24.32l-4.416 5.376a31.36 31.36 0 0 1-37.12 9.984 76.544 76.544 0 0 0-50.816-4.16 75.52 75.52 0 0 0-37.44 24.192l-4.352 5.376a31.36 31.36 0 0 1-37.12 10.048 76.544 76.544 0 0 0-69.568 3.52l-5.504 3.392c-10.624 7.168-21.888 1.792-20.096-13.952 18.048-156.8 101.376-295.552 258.048-353.792a31.232 31.232 0 1 1 56.768-16.768c174.08-38.592 323.2 42.816 419.52 176.896 7.232 10.112-0.32 17.6-8.896 17.92l-2.24-0.128a78.336 78.336 0 0 0-29.44 2.496 75.52 75.52 0 0 0-37.568 24l-4.416 5.376a31.36 31.36 0 0 1-37.12 9.984 76.544 76.544 0 0 0-50.752-4.16 75.52 75.52 0 0 0-37.632 24.064l-4.352 5.376a31.232 31.232 0 0 1-37.12 9.984 76.48 76.48 0 0 0-50.816-4.16 73.6 73.6 0 0 0-32.192 18.368l83.072 311.488 12.8-0.064z m204.288 34.24l-6.016-1.92a2653.632 2653.632 0 0 1 6.016 1.92zM382.08 336.64l9.28 2.048 0.96-0.448c14.784-14.464 32.64-25.344 52.288-31.936l7.424-2.24c19.648-5.312 40.192-6.144 60.16-2.432l9.28 2.048 3.584-3.584c14.08-12.928 30.72-22.72 48.768-28.8l7.872-2.368c19.648-5.312 40.192-6.208 60.16-2.432l9.344 1.984 3.712-3.584c4.032-3.712 8.256-7.168 12.672-10.304l1.792-1.28-4.16-4.16C577.28 163.136 465.152 129.792 345.536 162.176A326.4 326.4 0 0 0 112.768 393.6l-3.456 11.776 6.4 0.64 7.68 1.28 8.448 1.856c15.744-13.376 33.408-24.32 52.416-32.448l7.872-2.368c19.584-5.312 40.192-6.144 60.16-2.432l9.28 2.048 3.776-3.584a136.32 136.32 0 0 1 48.704-28.928l7.936-2.368c19.584-5.312 40.192-6.144 60.16-2.432z m-180.864 560.96h656.192c-41.472-79.488-160.768-138.24-315.2-140.736l-10.56-0.128c-157.696 0-282.624 58.176-328.192 136.768l-2.24 4.096z m489.28-376.768c10.496-0.128 20.928 1.28 30.976 4.16l7.552 2.24a108.8 108.8 0 0 1 37.12 22.336l1.792 1.792 7.04-0.256c10.432-0.064 20.864 1.28 30.912 4.16l7.488 2.496c13.76 4.864 26.368 12.416 37.12 22.272l1.792 1.792 7.04-0.32c10.496-0.128 20.864 1.28 30.912 4.16l7.488 2.432c4.608 1.664 9.088 3.648 13.44 5.888l1.792 0.96-1.792-4.608a189.824 189.824 0 0 0-115.84-111.488 193.088 193.088 0 0 0-160 10.88l-5.376 3.008 7.168 1.792 7.424 2.432c13.76 4.928 26.368 12.544 37.12 22.336l1.856 1.792 7.04-0.256z" p-id="26675" fill="#ffffff"></path></svg>