<?xml version="1.0" standalone="no"?><!DOCTYPE svg PUBLIC "-//W3C//DTD SVG 1.1//EN" "http://www.w3.org/Graphics/SVG/1.1/DTD/svg11.dtd"><svg t="1721291419961" class="icon" viewBox="0 0 1253 1024" version="1.1" xmlns="http://www.w3.org/2000/svg" p-id="23172" xmlns:xlink="http://www.w3.org/1999/xlink" width="244.7265625" height="200"><path d="M1141.133 1024H112.744C50.72 1024 0 973.322 0 911.36V112.64C0 50.698 50.74 0 112.724 0h1028.388c62.046 0 112.766 50.678 112.766 112.64v798.72c0 61.962-50.74 112.64-112.745 112.64z m56.362-911.36a56.424 56.424 0 0 0-56.362-56.32H112.744a56.424 56.424 0 0 0-56.403 56.32v798.678a56.424 56.424 0 0 0 56.362 56.32H1141.09a56.424 56.424 0 0 0 56.383-56.32V112.661z m-132.702 653.75H829.377a30.553 30.553 0 0 1-30.573-30.51c0-16.865 13.688-30.511 30.573-30.511h235.416c16.885 0 30.574 13.646 30.574 30.51 0 16.845-13.689 30.512-30.574 30.512z m0-151.802H829.377a30.553 30.553 0 0 1-30.573-30.51c0-16.886 13.688-30.554 30.573-30.554h235.416a30.553 30.553 0 0 1 0 61.043z m0-156.38H829.377a30.553 30.553 0 0 1-30.573-30.531c0-16.865 13.688-30.511 30.573-30.511h235.416c16.885 0 30.574 13.646 30.574 30.51 0 16.865-13.689 30.512-30.574 30.512z m0-151.802H829.377a30.553 30.553 0 0 1-30.573-30.511c0-16.865 13.688-30.532 30.573-30.532h235.416c16.885 0 30.574 13.667 30.574 30.511 0 16.865-13.689 30.532-30.574 30.532zM699.496 527.527h-105.45a21.692 21.692 0 0 1-21.672-21.713v-6.792c0-11.974 9.718-21.734 21.671-21.734h105.451c11.954 0 21.65 9.76 21.65 21.734v6.792c0 12.017-9.696 21.734-21.65 21.734z m-122.503-128.46c-8.088 6.813-19.185 4.326-24.785-5.517l-3.156-5.621c-5.6-9.864-3.573-23.406 4.514-30.219l86.685-72.996c8.108-6.813 19.184-4.326 24.785 5.538l3.197 5.58c5.58 9.884 3.553 23.405-4.535 30.239l-86.705 72.996z m-24.806 212.616c5.6-9.864 16.718-12.33 24.785-5.517l86.705 72.997c8.067 6.813 10.115 20.333 4.535 30.218l-3.197 5.58c-5.6 9.864-16.677 12.33-24.785 5.517l-86.685-72.997c-8.066-6.833-10.114-20.354-4.514-30.218l3.135-5.58z m-97.343 104.49c-33.896-25.015-103.006-64.387-150.841-99.495l-0.063-0.021c-0.564-0.355-1.129-2.299-1.672-2.633-5.851-3.281-8.38-12.267-39.957-12.33h-62.15c-16.698 0-25.747-8.255-25.747-25.015V427.76c0-16.739 9.885-24.158 25.747-24.158h61.879c31.744 0 34.335-9.09 40.207-12.35 0.544-0.335 1.129-2.3 1.672-2.634l0.063-0.02c49.402-35.109 118.031-71.66 150.841-97.698 9.927-7.9 44.158-22.78 44.158 23.781v375.704c0 46.54-33.939 33.311-44.137 25.788z" p-id="23173" fill="#ffffff"></path></svg>