<?xml version="1.0" standalone="no"?><!DOCTYPE svg PUBLIC "-//W3C//DTD SVG 1.1//EN" "http://www.w3.org/Graphics/SVG/1.1/DTD/svg11.dtd"><svg t="1721291669184" class="icon" viewBox="0 0 1024 1024" version="1.1" xmlns="http://www.w3.org/2000/svg" p-id="33446" xmlns:xlink="http://www.w3.org/1999/xlink" width="200" height="200"><path d="M684.234201 216.338187c10.295484 0 20.587897 0 36.028565 5.14723 10.295484 5.146207 20.587897 5.146207 30.883381 10.293437 10.292414 5.146207 20.586874 10.29446 25.733081 15.439644 10.293437 5.148253 15.443737 10.29446 20.586874 15.443737 10.293437 15.439644 15.443737 25.734104 20.587897 41.174772 5.1503 15.440667 10.293437 30.880311 10.293437 46.324048 0 15.438621 5.1503 30.880311 5.1503 51.467185 5.148253 0 5.148253 5.146207 5.148253 10.29446 0 5.146207 5.146207 5.146207 5.146207 10.293437s0 10.295484 0 15.440667c0 10.293437 0 15.443737-5.146207 20.587897 0 5.1503-5.148253 10.293437-10.295484 10.293437-5.146207 5.152347-5.146207 5.152347-10.293437 5.152347 0 5.14416-5.148253 15.437597-5.148253 20.587897 0 5.14109-5.1503 10.295484-5.1503 15.436574 0 5.1503-5.146207 10.29446-10.293437 10.29446-5.148253 5.151323-15.440667 10.293437-20.586874 15.443737-5.146207 5.142114-10.295484 10.295484-10.295484 20.587897 0 5.142114 0 10.293437 0 20.587897 0 5.14109 0 10.292414 5.1503 20.586874 5.148253 5.14109 5.148253 10.292414 15.441691 20.586874 5.146207 5.142114 15.441691 10.293437 25.733081 15.437597 10.295484 5.1503 20.587897 10.292414 30.883381 10.292414 10.292414 5.1503 20.586874 5.1503 36.025495 10.295484 10.295484 5.1503 20.587897 10.293437 30.883381 15.443737 10.292414 5.1503 15.438621 15.445784 20.586874 25.737174 0 5.14416 5.146207 15.437597 5.146207 25.732058 0 10.292414 0 20.586874 0 30.880311 0 10.29446 0 20.586874 0 25.737174 0 10.295484-5.146207 15.437597-5.146207 20.587897 0 5.14109-5.148253 5.14109-15.440667 10.292414-10.293437 5.14416-20.587897 5.14416-36.029588 10.295484-15.438621 5.142114-30.880311 5.142114-46.320978 5.142114-15.443737 0-36.031635 5.1503-51.468209 5.1503-15.445784 0-36.032658 5.152347-51.472302 5.152347-15.440667 0-30.882358 0-41.174772 0-10.29446 0-25.733081 0-41.174772 0-15.440667 0-30.882358 0-46.320978-5.152347-15.445784 0-30.883381-5.1503-46.326095-5.1503-15.440667 0-30.882358-5.142114-46.320978-5.142114-15.441691 0-25.736151-5.1503-30.883381-5.1503-10.292414 0-15.440667-5.14416-15.440667-5.14416-5.146207-5.1503-5.146207-15.442714-10.293437-30.880311 0-15.443737 0-41.180911 5.146207-66.912969 0-15.443737 10.295484-25.738198 15.445784-36.031635 10.293437-10.29446 20.582781-15.436574 36.026518-20.586874 15.441691-5.14416 25.735128-10.295484 41.174772-10.295484 15.440667-5.14109 25.733081-10.292414 36.028565-15.436574 10.293437-5.1503 15.441691-10.293437 20.587897-15.443737 5.145184-5.14416 5.145184-10.295484 10.292414-15.436574 0-5.1503 5.148253-10.295484 5.148253-15.445784 0-5.151323 0-10.293437 0-15.443737 0-10.295484-5.148253-15.436574-10.295484-20.586874-5.145184-5.14416-10.292414-10.295484-20.586874-15.437597-5.146207-5.1503-5.146207-5.1503-10.293437-10.293437 0-5.152347-5.148253-10.29446-5.148253-15.445784 0-5.143137-5.146207-10.29446-5.146207-20.586874-5.1503 0-5.1503 0-10.292414-5.14109 0 0-5.151323-5.152347-10.295484-10.29753-5.1503-5.1503-5.1503-10.293437-5.1503-15.443737 0-5.148253-5.142114-15.441691-5.142114-20.587897 0-5.148253 0-10.29446 5.142114-15.440667 0-5.146207 5.1503-10.293437 10.29446-15.441691 0-15.440667 0-30.880311 0-46.324048 0-15.440667 5.151323-25.733081 10.293437-41.174772 5.1503-15.440667 10.295484-30.880311 20.587897-41.175795 5.1503-10.293437 15.445784-20.586874 25.737174-25.734104 10.295484-5.146207 20.587897-15.439644 30.883381-15.439644 10.292414-5.148253 20.586874-5.148253 30.880311-10.29446-10.293437-5.148253 0-5.148253 10.292414-5.148253L684.231131 216.338187z" fill="#143167" p-id="33447"></path><path d="M395.484821 783.76966c-5.1503-25.738198 0-51.467185 5.146207-87.49882 5.145184-30.881334 20.586874-61.761646 46.320978-82.350566 15.445784-15.445784 36.033681-25.738198 56.620555-30.881334 15.438621-5.152347 30.876218-10.29446 46.322002-15.44476-5.1503-10.295484-10.295484-15.436574-15.445784-25.732058-5.146207-5.1503-5.146207-15.443737-10.293437-20.585851-5.146207-5.152347-5.146207-10.29446-10.290367-10.29446-10.293437-10.295484-15.443737-25.738198-20.587897-41.176818-5.1503-15.443737-5.1503-30.883381-5.1503-46.324048 0-10.293437 5.1503-25.736151 10.295484-36.030611 0 0 0-5.146207 5.1503-5.146207 0-6.318916 0.005117-12.644995 1.195222-20.156062L375.104655 238.083443c-2.62171 2.237971-3.585665 3.068895-3.900843 3.344165l-0.010233 0c-23.763217 20.37505-31.493272 30.717605-31.493272 30.717605L82.441129 523.001565c-9.717316 9.475815-9.911744 25.045419-0.432859 34.760688l72.468498-0.819668L154.476769 793.710057c0 22.23542 13.745049 40.270169 30.697139 40.270169l230.286873 0C400.591119 815.579133 400.099932 797.605783 395.484821 783.76966z" fill="#143167" p-id="33448"></path></svg>