<?xml version="1.0" standalone="no"?><!DOCTYPE svg PUBLIC "-//W3C//DTD SVG 1.1//EN" "http://www.w3.org/Graphics/SVG/1.1/DTD/svg11.dtd"><svg t="1720080932508" class="icon" viewBox="0 0 1024 1024" version="1.1" xmlns="http://www.w3.org/2000/svg" p-id="4063" xmlns:xlink="http://www.w3.org/1999/xlink" width="200" height="200"><path d="M366.933333 356.778667v57.728l1.066667-0.042667h49.834667V356.778667H366.933333zM417.834667 450.432H366.933333v58.624l1.28-0.042667h49.621334v-58.581333zM417.834667 545.450667H368.213333l-1.28-0.042667v65.621333c16.256-3.157333 33.408-6.528 50.901334-10.026666v-55.552zM543.957333 431.957333a16.128 16.128 0 0 0 0 32.298667h34.218667a20.181333 20.181333 0 0 1-0.853333-5.845333v-26.453334h-33.365334zM617.642667 431.957333v26.453334a20.181333 20.181333 0 0 1-0.853334 5.845333h32.853334a16.128 16.128 0 0 0 0-32.298667h-32zM617.642667 402.432v-31.36h32.426666a15.701333 15.701333 0 1 1 0 31.36h-32.426666zM577.28 371.072v31.36h-33.792a15.701333 15.701333 0 0 1 0-31.36h33.834667z" fill="#13227a" p-id="4064"></path><path d="M896 512a382.378667 382.378667 0 0 1-83.968 239.701333l81.834667 81.834667a42.666667 42.666667 0 0 1-60.373334 60.330667l-81.792-81.834667A384 384 0 1 1 896 512zM302.336 337.194667c0 10.794667 8.789333 19.626667 19.626667 19.626666h6.954666v254.933334c0 2.176 0.384 4.266667 1.024 6.229333l-10.794666 1.92a20.437333 20.437333 0 0 0-16.554667 23.893333c2.133333 11.093333 12.928 18.304 23.936 16 27.477333-5.76 58.88-12.373333 91.306667-19.328v65.408a19.498667 19.498667 0 0 0 38.954666 0v-73.856l10.581334-2.304a18.944 18.944 0 0 0-7.850667-37.12l-2.005333 0.426667a46.208 46.208 0 0 0-0.725334 0.128v-236.373333h5.12a19.626667 19.626667 0 0 0 0-39.210667h-139.946666a19.626667 19.626667 0 0 0-19.626667 19.626667z m167.253333 202.709333c0 9.941333 8.106667 18.005333 18.005334 18.005333h40.618666c-3.797333 14.549333-7.978667 29.525333-12.330666 43.392-4.266667 13.653333 5.76 28.074667 20.053333 28.074667a20.394667 20.394667 0 0 0 8.234667-1.706667 17.493333 17.493333 0 0 0 7.594666 1.706667h101.504a17.578667 17.578667 0 0 0 4.693334-0.64c-4.224 32.426667-9.045333 47.786667-15.573334 53.248-4.138667 3.669333-8.704 4.138667-17.408 4.138667-5.290667 0-15.445333-0.128-27.733333-0.725334-11.648-0.554667-20.48 13.952-17.92 25.386667 1.578667 7.125333 7.253333 12.458667 14.592 12.629333 20.181333 0.512 38.229333 0.384 48.469333-0.426666 14.677333-0.853333 24.746667-4.096 33.92-13.354667 12.373333-11.946667 18.773333-39.210667 25.173334-98.688 1.493333-8.96-6.186667-16.64-15.274667-16.64h-19.029333a6.016 6.016 0 0 0-4.864 2.56 17.450667 17.450667 0 0 0-9.045334-2.56h-91.989333a2035.456 2035.456 0 0 0 9.728-36.394667h136.32a18.005333 18.005333 0 0 0 0-36.010666h-219.733333a18.005333 18.005333 0 0 0-18.005334 18.005333z m107.733334-200.192h-44.885334a42.666667 42.666667 0 0 0-42.666666 42.666667v70.570666a42.666667 42.666667 0 0 0 42.666666 42.666667h130.048a42.666667 42.666667 0 0 0 42.666667-42.666667V382.378667a42.666667 42.666667 0 0 0-42.666667-42.666667h-44.842666v-20.906667a20.181333 20.181333 0 0 0-40.32 0v20.906667z" fill="#13227a" p-id="4065"></path></svg>