<?xml version="1.0" standalone="no"?><!DOCTYPE svg PUBLIC "-//W3C//DTD SVG 1.1//EN" "http://www.w3.org/Graphics/SVG/1.1/DTD/svg11.dtd"><svg t="1721291340797" class="icon" viewBox="0 0 1024 1024" version="1.1" xmlns="http://www.w3.org/2000/svg" p-id="21792" xmlns:xlink="http://www.w3.org/1999/xlink" width="200" height="200"><path d="M752.21744 617.426a6.46 6.46 0 0 1-4.488-1.804l-173.69-166.59-86.136 0.734-41.198 39.338c-21.052 20.116-54.576 19.406-74.734-1.584-19.786-20.576-19.786-52.85 0-73.478l73.838-78.164a6.492 6.492 0 0 1 4.716-2.03h179.616c1.672 0 3.276 0.644 4.484 1.798l20.834 19.928 178.97 171.576a6.48 6.48 0 0 1 0.138 9.226l-77.726 79.108a6.45 6.45 0 0 1-4.624 1.942z m-175.592-181.388c1.672 0 3.28 0.646 4.488 1.804l170.97 163.984 68.634-69.856-193.172-185.154h-174.22l-71.956 76.168c-14.986 15.62-14.986 40.004-0.042 55.548 15.218 15.844 40.518 16.384 56.424 1.19l43.054-41.114a6.49 6.49 0 0 1 4.424-1.794l91.34-0.778 0.056 0.002z" fill="#143167" p-id="21793"></path><path d="M814.33744 516.876l-62.594 63.674-166.472-159.728-108.762 0.952-49.194 46.988c-4.582 4.41-10.59 6.83-16.946 6.916h-0.172a24.8 24.8 0 0 1-17.982-7.652 24.784 24.784 0 0 1 0.042-34.496l67.566-73.272h191.154l163.36 156.618z" fill="#143167" p-id="21794"></path><path d="M249.12544 703.942c-12.158 0.002-24.308-4.658-33.514-13.96a46.864 46.864 0 0 1-13.636-33.408c0.068-12.594 5.032-24.408 13.986-33.266l40.37-39.952a46.834 46.834 0 0 1 33.156-13.636l0.254 0.002a46.846 46.846 0 0 1 33.266 13.982 46.87 46.87 0 0 1 13.636 33.412 46.846 46.846 0 0 1-13.986 33.266l-40.37 39.95c-9.176 9.08-21.172 13.61-33.162 13.61z m40.362-121.252a33.962 33.962 0 0 0-24.038 9.882l-40.37 39.952a33.966 33.966 0 0 0-10.136 24.116 33.966 33.966 0 0 0 9.886 24.218c13.256 13.392 34.938 13.514 48.336 0.254l40.37-39.95a33.972 33.972 0 0 0 10.136-24.116 33.966 33.966 0 0 0-9.886-24.218 33.95 33.95 0 0 0-24.114-10.138h-0.184z" fill="#143167" p-id="21795"></path><path d="M249.29144 675.868a18.892 18.892 0 0 1-13.706-5.65c-7.39-7.466-7.324-19.55 0.138-26.94l40.372-39.948a18.936 18.936 0 0 1 13.23-5.51 18.906 18.906 0 0 1 13.71 5.648c7.386 7.468 7.326 19.552-0.142 26.942l-40.372 39.948a18.936 18.936 0 0 1-13.23 5.51z" fill="#143167" p-id="21796"></path><path d="M364.03944 819.036h-0.258c-12.592-0.066-24.404-5.032-33.262-13.984s-13.698-20.816-13.636-33.408c0.064-12.594 5.032-24.408 13.986-33.268l40.37-39.95c8.95-8.856 20.732-13.792 33.408-13.634a46.846 46.846 0 0 1 33.266 13.982c18.284 18.48 18.128 48.388-0.35 66.674l-40.374 39.954a46.818 46.818 0 0 1-33.15 13.634z m40.356-121.276a33.962 33.962 0 0 0-24.038 9.882l-40.37 39.952c-13.394 13.254-13.508 34.938-0.254 48.334h0.004a33.944 33.944 0 0 0 24.114 10.138h0.182c9.064 0 17.59-3.506 24.038-9.882l40.374-39.954a33.96 33.96 0 0 0 10.136-24.114 33.966 33.966 0 0 0-9.886-24.218 33.95 33.95 0 0 0-24.114-10.138h-0.186z" fill="#143167" p-id="21797"></path><path d="M364.19744 790.936a18.914 18.914 0 0 1-13.71-5.648 18.936 18.936 0 0 1-5.508-13.498 18.92 18.92 0 0 1 5.654-13.44l40.372-39.954a18.936 18.936 0 0 1 13.23-5.508 18.908 18.908 0 0 1 13.71 5.65 18.93 18.93 0 0 1 5.508 13.498 18.92 18.92 0 0 1-5.654 13.44l-40.372 39.952a18.928 18.928 0 0 1-13.23 5.508z" fill="#143167" p-id="21798"></path><path d="M421.23944 876.81c-12.158 0-24.308-4.656-33.514-13.958-18.284-18.48-18.128-48.388 0.35-66.674l22.884-22.648a46.834 46.834 0 0 1 33.156-13.638l0.254 0.002a46.84 46.84 0 0 1 33.266 13.982c18.284 18.48 18.128 48.388-0.35 66.674L454.40144 863.198c-9.174 9.08-21.172 13.612-33.162 13.612z m-24.294-23.08c13.248 13.394 34.938 13.51 48.336 0.252l22.884-22.646c13.394-13.258 13.504-34.942 0.25-48.336a33.94 33.94 0 0 0-24.114-10.136c-9.156 0.104-17.73 3.464-24.222 9.884l-22.884 22.646c-13.396 13.258-13.506 34.94-0.25 48.336z" fill="#143167" p-id="21799"></path><path d="M421.40744 848.738a18.892 18.892 0 0 1-13.706-5.65 18.914 18.914 0 0 1-5.512-13.5 18.926 18.926 0 0 1 5.65-13.438l22.888-22.65a18.934 18.934 0 0 1 13.226-5.508 18.906 18.906 0 0 1 13.71 5.648 18.928 18.928 0 0 1 5.508 13.5 18.926 18.926 0 0 1-5.65 13.438l-22.888 22.65a18.952 18.952 0 0 1-13.226 5.51z" fill="#143167" p-id="21800"></path><path d="M306.76944 761.254c-12.158 0.002-24.308-4.658-33.514-13.96a46.864 46.864 0 0 1-13.636-33.408c0.068-12.594 5.032-24.408 13.986-33.266l67.08-66.382a46.834 46.834 0 0 1 33.156-13.636l0.254 0.002a46.846 46.846 0 0 1 33.266 13.982c18.284 18.48 18.128 48.388-0.35 66.674l-67.08 66.386c-9.174 9.076-21.172 13.608-33.162 13.608z m67.072-147.684c-9.06 0-17.59 3.506-24.038 9.884l-67.08 66.382c-13.394 13.256-13.508 34.94-0.25 48.334 13.256 13.394 34.938 13.514 48.336 0.254l67.08-66.382c13.394-13.256 13.504-34.94 0.25-48.334a33.948 33.948 0 0 0-24.114-10.136l-0.184-0.002z" fill="#143167" p-id="21801"></path><path d="M306.93744 733.178a18.906 18.906 0 0 1-13.71-5.648c-7.386-7.468-7.326-19.552 0.142-26.942l67.08-66.38a18.936 18.936 0 0 1 13.23-5.508 18.914 18.914 0 0 1 13.71 5.648 18.938 18.938 0 0 1 5.508 13.5 18.92 18.92 0 0 1-5.654 13.44l-67.078 66.382a18.94 18.94 0 0 1-13.228 5.508z" fill="#143167" p-id="21802"></path><path d="M517.23744 870.18c-12.858 0-24.868-5.042-33.86-14.226l-15.244-15.46a6.486 6.486 0 0 1 0.046-9.15c6.62-6.586 10.224-15.326 10.148-24.618a33.978 33.978 0 0 0-9.886-23.718c-13.02-13.168-33.86-13.646-47.442-1.096a6.48 6.48 0 0 1-9.098-0.29c-2.44-2.562-2.418-6.648 0.098-9.132l16.468-16.252c6.602-6.6 10.208-15.362 10.132-24.638-0.072-8.91-3.592-17.314-9.912-23.668-6.43-6.516-14.982-10.122-24.108-10.17l-0.194-0.002a33.898 33.898 0 0 0-23.978 9.85l-0.054 0.052a6.482 6.482 0 0 1-9.17-0.044 6.48 6.48 0 0 1 0.038-9.166l0.004-0.004 26.676-26.412c6.61-6.578 10.212-15.318 10.136-24.602-0.072-8.922-3.588-17.368-9.896-23.78-13.272-13.342-34.954-13.44-48.302-0.2l-25.688 25.382a6.48 6.48 0 0 1-9.05 0.064 6.48 6.48 0 0 1-0.3-9.044c5.784-6.344 8.932-14.614 8.856-23.286a33.966 33.966 0 0 0-9.882-23.722c-6.434-6.504-14.994-10.11-24.104-10.156l-0.186-0.002c-9.042 0-17.57 3.514-24.032 9.906l-12.888 12.718c-1.236 1.218-2.88 1.796-4.648 1.868a6.478 6.478 0 0 1-4.592-2.004L183.18944 542.28a6.48 6.48 0 0 1 0.198-9.162l194.924-186.84a6.556 6.556 0 0 1 4.626-1.794c1.718 0.038 3.352 0.76 4.542 2.004l29.352 30.734a6.486 6.486 0 0 1-0.022 8.98l-35.49 36.83a39.926 39.926 0 0 0 0.004 55.502c15.218 15.844 40.518 16.384 56.424 1.19l43.012-41.11a6.476 6.476 0 0 1 4.424-1.796l91.382-0.778h0.054c1.672 0 3.28 0.646 4.488 1.804l175.592 168.418 36.816 35.686c10.77 10.458 16.684 24.492 16.658 39.518-0.026 15.034-5.99 29.056-16.798 39.488-10.114 9.824-23.506 15.288-37.702 15.392a54.5 54.5 0 0 1-35.494-12.578c0.24 2.24 0.342 4.502 0.296 6.776a53.436 53.436 0 0 1-17.81 38.698 53.14 53.14 0 0 1-34.954 13.488l-0.402 0.002a53.108 53.108 0 0 1-29.758-9.074c0.13 1.608 0.182 3.234 0.148 4.87-0.25 12.69-5.42 24.516-14.568 33.302l-1.008 0.964c-15.696 15.062-39.598 17.122-57.538 6.3 0.102 1.36 0.144 2.732 0.126 4.112-0.144 13.008-5.434 25.086-14.894 34.01-8.794 8.26-20.22 12.86-32.188 12.964h-0.392z m-35.638-34.5l11.026 11.184c6.61 6.754 15.35 10.436 24.902 10.344 8.692-0.076 17.008-3.428 23.404-9.438 6.864-6.478 10.71-15.258 10.82-24.716a34.17 34.17 0 0 0-10.242-24.906L514.52144 771.38a6.48 6.48 0 0 1 9.126-9.212l41.324 40.894c13.172 13.058 34.78 13.224 48.184 0.364l1.008-0.96a34.26 34.26 0 0 0 10.574-24.192c0.178-9.24-3.23-17.974-9.604-24.59l-20.372-19.042a6.484 6.484 0 0 1 8.852-9.476l36.136 33.718a40.254 40.254 0 0 0 27.558 10.88l0.308-0.002a40.154 40.154 0 0 0 26.422-10.2c8.46-7.544 13.248-17.942 13.474-29.28 0.228-11.322-4.12-21.882-12.242-29.734l-25.258-24.14a6.482 6.482 0 0 1 8.936-9.394l47.55 45.046a41.568 41.568 0 0 0 28.6 11.322l0.46-0.002c10.866-0.078 21.086-4.246 28.79-11.74 0.008-0.004 0.012-0.01 0.016-0.016 8.262-7.968 12.816-18.684 12.838-30.176 0.016-11.482-4.5-22.206-12.72-30.188l-36.786-35.658-173.664-166.568-86.178 0.734-41.156 39.336c-21.044 20.116-54.576 19.408-74.734-1.58a52.858 52.858 0 0 1 0.004-73.482l31.18-32.358-20.58-21.544-10.958 10.476L197.03744 538l51.106 53.452 8.194-8.084c8.898-8.804 20.664-13.648 33.148-13.648l0.25 0.002c12.58 0.066 24.392 5.038 33.262 14.006 8.688 8.784 13.53 20.41 13.632 32.734 0.004 0.612 0 1.226-0.022 1.836l4.108-4.058c18.418-18.262 48.316-18.138 66.648 0.298 8.704 8.848 13.542 20.484 13.644 32.79 0.106 12.802-4.854 24.846-13.968 33.916l-3.596 3.56c0.406-0.008 0.794-0.02 1.212-0.008a46.738 46.738 0 0 1 33.248 14.014c8.704 8.752 13.568 20.364 13.67 32.684a46.986 46.986 0 0 1-9.152 28.356 47.19 47.19 0 0 1 35.246 14.04c8.684 8.778 13.53 20.404 13.636 32.73 0.076 10.638-3.33 20.746-9.704 29.06z" fill="#143167" p-id="21803"></path><path d="M782.08944 681.446c0 7.348-2.94 14.222-8.214 19.322a26.586 26.586 0 0 1-18.416 7.478 26.58 26.58 0 0 1-18.588-7.218l-31.902-30.174c-8.646-8.214-22.262-7.824-30.476 0.778l-0.13 0.13c-8.17 8.646-7.824 22.262 0.778 30.476l9.726 9.294c4.972 4.756 7.652 11.368 7.522 18.416-0.13 7.088-3.112 13.616-8.43 18.328a25.23 25.23 0 0 1-16.514 6.354 25.076 25.076 0 0 1-17.334-6.788l-16.124-15.044-4.15-3.934c-8.344-7.912-21.484-7.868-29.784 0.13a15.748 15.748 0 0 0-0.864 0.908c-3.848 4.106-5.75 9.38-5.75 14.654 0 5.576 2.162 11.196 6.484 15.432l4.02 3.89c4.322 4.322 6.312 10.246 5.49 16.47-0.648 4.582-3.07 8.688-6.442 11.844l-0.172 0.174c-3.76 3.588-8.474 5.49-13.4 5.534a19.234 19.234 0 0 1-13.79-5.576l-26.024-25.72c-8.472-8.386-22.134-8.3-30.476 0.13l-0.044 0.044-0.044 0.044c-8.386 8.472-8.344 22.132 0.13 30.518l11.672 11.542a18.954 18.954 0 0 1 5.75 14.006c-0.044 5.318-2.204 10.246-6.096 13.92a19.402 19.402 0 0 1-13.098 5.274 19.158 19.158 0 0 1-13.962-5.792l-2.854-2.896a62.012 62.012 0 0 0 5.836-26.93c-0.172-16.254-6.57-31.6-18.026-43.184-6.83-6.916-14.958-12.018-23.862-15.086a62.57 62.57 0 0 0 2.162-16.816c-0.172-16.254-6.57-31.6-18.026-43.228-5.534-5.576-11.888-9.986-18.804-13.098 4.194-8.56 6.354-18.026 6.268-27.84a61.832 61.832 0 0 0-18.026-43.272c-11.93-12.06-27.84-18.63-44.828-18.458a62.42 62.42 0 0 0-26.802 6.268 62.484 62.484 0 0 0-12.71-18.674c-11.93-12.062-27.84-18.632-44.828-18.458-15 0.13-29.222 5.534-40.418 15.346l-45.044-47.118 163.662-156.918 15.044 15.734-21.096 21.874a67.992 67.992 0 0 0-0.044 94.454c12.926 13.444 31.038 21.052 49.712 20.922a68.154 68.154 0 0 0 46.426-18.846l36.83-35.188 74.006-0.648 169.238 162.322 36.7 35.578c5.24 5.094 8.136 11.966 8.136 19.316z" fill="#143167" p-id="21804"></path><path d="M154.05344 576.702a6.478 6.478 0 0 1-4.682-1.996L1.80544 420.778a6.494 6.494 0 0 1-1.802-4.624 6.5 6.5 0 0 1 1.996-4.544L271.17944 153.56a6.486 6.486 0 0 1 9.17 0.194l147.566 153.928c1.19 1.242 1.836 2.904 1.802 4.624a6.5 6.5 0 0 1-1.996 4.544L158.54144 574.9a6.474 6.474 0 0 1-4.488 1.802zM15.65544 416.484l138.592 144.568 259.816-249.076-138.592-144.568L15.65544 416.484z" fill="#143167" p-id="21805"></path><path d="M34.94144 416.9L275.07144 186.72l119.7 124.872L154.64144 541.772z" fill="#143167" p-id="21806"></path><path d="M268.34544 317.466c-10.694 0-21.378-4.188-29.352-12.504-15.498-16.168-14.974-41.908 1.166-57.382a40.492 40.492 0 0 1 28.938-11.252 40.396 40.396 0 0 1 28.44 12.514c15.498 16.168 14.978 41.908-1.16 57.38-7.836 7.512-17.942 11.244-28.032 11.244z m-0.164-68.182a27.354 27.354 0 0 0-19.048 7.658c-10.98 10.524-11.326 28.04-0.776 39.044s28.068 11.394 39.044 0.872c10.976-10.522 11.322-28.038 0.772-39.042a27.5 27.5 0 0 0-19.992-8.532zM869.95544 576.702c-1.672 0-3.28-0.646-4.488-1.802l-269.18-258.05a6.492 6.492 0 0 1-0.194-9.168l147.566-153.928a6.486 6.486 0 0 1 9.17-0.194l269.174 258.05a6.488 6.488 0 0 1 0.194 9.17l-147.562 153.928a6.48 6.48 0 0 1-4.546 1.994h-0.134zM609.94544 311.976L869.76144 561.052l138.588-144.568L748.53744 167.41l-138.592 144.566z" fill="#143167" p-id="21807"></path><path d="M629.22544 311.54l119.7-124.87 240.124 230.18-119.7 124.87z" fill="#143167" p-id="21808"></path><path d="M755.66144 317.466c-10.094 0-20.196-3.732-28.03-11.244a40.272 40.272 0 0 1-12.466-28.436 40.392 40.392 0 0 1 11.306-28.944 40.396 40.396 0 0 1 28.44-12.514 40.372 40.372 0 0 1 28.938 11.252c16.138 15.474 16.662 41.214 1.166 57.382-7.976 8.316-18.66 12.504-29.354 12.504z m0.166-68.182a27.49 27.49 0 0 0-19.994 8.532 27.492 27.492 0 0 0-7.7 19.708 27.366 27.366 0 0 0 8.472 19.334c10.976 10.522 28.496 10.134 39.044-0.872s10.204-28.52-0.776-39.044a27.346 27.346 0 0 0-19.046-7.658zM472.73744 935.31l-0.27-12.964a137.672 137.672 0 0 0 12.356-0.812l1.436 12.888a149.704 149.704 0 0 1-13.522 0.888z m-13.546-0.324a151.972 151.972 0 0 1-13.458-1.546l2.06-12.804c4.048 0.65 8.186 1.126 12.302 1.41l-0.904 12.94z m40.438-2.664l-2.584-12.706a137.274 137.274 0 0 0 12.002-3.014l3.724 12.424a151.16 151.16 0 0 1-13.142 3.296z m-67.164-1.628a152.4 152.4 0 0 1-12.964-3.932l4.322-12.23a136.862 136.862 0 0 0 11.85 3.594l-3.208 12.568z m93.1-6.146l-4.83-12.036a136.73 136.73 0 0 0 11.258-5.126l5.902 11.55a151.674 151.674 0 0 1-12.33 5.612z m-118.624-2.878a150.288 150.288 0 0 1-12.048-6.208l6.458-11.246a137.35 137.35 0 0 0 11.002 5.668l-5.412 11.786z m142.734-9.446l-6.924-10.964a139.864 139.864 0 0 0 10.162-7.074l7.878 10.3a150.254 150.254 0 0 1-11.116 7.738z m-166.218-4.032a150.29 150.29 0 0 1-10.726-8.27l8.372-9.904a137.894 137.894 0 0 0 9.802 7.56l-7.448 10.614z m-20.566-17.112l-9.566-8.756 8.756-9.566 9.566 8.756-8.756 9.566z m-19.132-17.51l-9.57-8.756 8.756-9.57 9.57 8.756-8.756 9.57z m-19.136-17.512l-9.566-8.756 8.756-9.566 9.566 8.756-8.756 9.566zM672.09344 180.934l-9.236-9.102 9.102-9.238 9.236 9.102-9.102 9.238z m18.204-18.476l-9.236-9.102 9.102-9.238 9.236 9.102-9.102 9.238z m18.202-18.478l-9.236-9.102 9.102-9.236 9.236 9.102-9.102 9.236z m18.204-18.474l-9.236-9.102 9.102-9.236 9.236 9.102-9.102 9.236z m18.202-18.476l-9.236-9.102 9.102-9.238 9.236 9.102-9.102 9.238zM836.52944 197.116l-9.236-9.104 9.102-9.236 9.236 9.104-9.102 9.236z m-18.478-18.204l-9.236-9.102 9.102-9.236 9.236 9.102-9.102 9.236z m-18.472-18.202l-9.24-9.102 9.102-9.24 9.24 9.102-9.102 9.24z m-18.478-18.204l-9.236-9.102 9.102-9.236 9.236 9.102-9.102 9.236z m-18.478-18.204l-9.236-9.102 9.102-9.236 9.236 9.102-9.102 9.236z" fill="#143167" p-id="21809"></path></svg>